<?xml version="1.0" encoding="utf-8"?>
<svg version="1.1" xmlns="http://www.w3.org/2000/svg" xmlns:xlink="http://www.w3.org/1999/xlink" x="0px" y="0px" viewBox="0 0 1000 1000" enable-background="new 0 0 1000 1000" xml:space="preserve">
<g><path d="M507.5,308.1v395.5h-15.1V308.1l0,0L306.2,475.8l-10.1-11.2L497.8,283l2.2,2.4l2.2-2.4l201.7,181.6l-10.1,11.2L507.5,308.1z M990,500c0-270.6-219.4-490-490-490S10,229.4,10,500s219.4,490,490,490S990,770.6,990,500z M25.1,500C25.1,237.7,237.7,25.1,500,25.1S974.9,237.7,974.9,500S762.3,974.9,500,974.9S25.1,762.3,25.1,500z"/></g>
</svg>