<?xml version="1.0" encoding="iso-8859-1"?>
<!-- Generator: Adobe Illustrator 19.0.0, SVG Export Plug-In . SVG Version: 6.00 Build 0)  -->
<svg version="1.1" id="Layer_1" xmlns="http://www.w3.org/2000/svg" xmlns:xlink="http://www.w3.org/1999/xlink" x="0px" y="0px"
	 viewBox="0 0 472.615 472.615" style="enable-background:new 0 0 472.615 472.615;" xml:space="preserve">
<g>
	<g>
		<rect y="226.462" width="472.615" height="19.692"/>
	</g>
</g>
<g>
	<g>
		<path d="M236.308,30.212c-36.702,0-66.558,29.856-66.558,66.558s29.856,66.567,66.558,66.567s66.567-29.865,66.567-66.567
			S273.01,30.212,236.308,30.212z M236.308,143.644c-25.846,0-46.865-21.029-46.865-46.875s21.019-46.865,46.865-46.865
			c25.846,0,46.875,21.019,46.875,46.865S262.154,143.644,236.308,143.644z"/>
	</g>
</g>
<g>
	<g>
		<path d="M236.308,309.288c-36.702,0-66.558,29.856-66.558,66.558c0,36.702,29.856,66.558,66.558,66.558
			s66.567-29.856,66.567-66.558C302.875,339.144,273.01,309.288,236.308,309.288z M236.308,422.712
			c-25.846,0-46.865-21.019-46.865-46.865c0-25.846,21.019-46.865,46.865-46.865c25.846,0,46.875,21.019,46.875,46.865
			C283.183,401.692,262.154,422.712,236.308,422.712z"/>
	</g>
</g>
<g>
</g>
<g>
</g>
<g>
</g>
<g>
</g>
<g>
</g>
<g>
</g>
<g>
</g>
<g>
</g>
<g>
</g>
<g>
</g>
<g>
</g>
<g>
</g>
<g>
</g>
<g>
</g>
<g>
</g>
</svg>
