<?xml version="1.0" encoding="iso-8859-1"?>
<!-- Generator: Adobe Illustrator 19.0.0, SVG Export Plug-In . SVG Version: 6.00 Build 0)  -->
<svg version="1.1" id="Capa_1" xmlns="http://www.w3.org/2000/svg" xmlns:xlink="http://www.w3.org/1999/xlink" x="0px" y="0px"
	 viewBox="0 0 344.971 344.971" style="enable-background:new 0 0 344.971 344.971;" xml:space="preserve">
<g>
	<g>
		<path d="M342.59,330.438l0.032,0L183.814,172.494L341.79,13.646c3.117-3.133,3.105-8.199-0.028-11.316s-8.199-3.105-11.316,0.028
			L172.502,161.182L13.67,3.206C10.537,0.089,5.471,0.101,2.354,3.234c-3.117,3.133-3.105,8.199,0.028,11.316L161.19,172.494
			L3.23,331.326c-3.117,3.133-3.105,8.199,0.028,11.316c3.133,3.117,8.199,3.105,11.316-0.028l157.928-158.808l158.8,157.976
			c3.133,3.117,8.199,3.105,11.316-0.028C345.735,338.621,345.722,333.555,342.59,330.438z"/>
	</g>
</g>
<g>
</g>
<g>
</g>
<g>
</g>
<g>
</g>
<g>
</g>
<g>
</g>
<g>
</g>
<g>
</g>
<g>
</g>
<g>
</g>
<g>
</g>
<g>
</g>
<g>
</g>
<g>
</g>
<g>
</g>
</svg>
