<?xml version="1.0" encoding="iso-8859-1"?>
<!-- Generator: Adobe Illustrator 19.0.0, SVG Export Plug-In . SVG Version: 6.00 Build 0)  -->
<svg version="1.1" id="Capa_1" xmlns="http://www.w3.org/2000/svg" xmlns:xlink="http://www.w3.org/1999/xlink" x="0px" y="0px"
	 viewBox="0 0 512 512" style="enable-background:new 0 0 512 512;" xml:space="preserve">
<g transform="translate(1 1)">
	<g>
		<g>
			<path d="M504.752,5.248c-8.331-8.331-21.839-8.331-30.17,0L5.248,474.582c-8.331,8.331-8.331,21.839,0,30.17
				c8.331,8.331,21.839,8.331,30.17,0L504.752,35.418C513.083,27.087,513.083,13.58,504.752,5.248z"/>
			<path d="M425.667,340.333c-47.131,0-85.333,38.202-85.333,85.333S378.535,511,425.667,511S511,472.798,511,425.667
				S472.798,340.333,425.667,340.333z M425.667,468.333c-23.567,0-42.667-19.099-42.667-42.667S402.099,383,425.667,383
				s42.667,19.099,42.667,42.667S449.234,468.333,425.667,468.333z"/>
			<path d="M84.333,169.667c47.131,0,85.333-38.202,85.333-85.333S131.465-1,84.333-1S-1,37.202-1,84.333
				S37.202,169.667,84.333,169.667z M84.333,41.667c23.567,0,42.667,19.099,42.667,42.667S107.901,127,84.333,127
				s-42.667-19.099-42.667-42.667S60.766,41.667,84.333,41.667z"/>
		</g>
	</g>
</g>
<g>
</g>
<g>
</g>
<g>
</g>
<g>
</g>
<g>
</g>
<g>
</g>
<g>
</g>
<g>
</g>
<g>
</g>
<g>
</g>
<g>
</g>
<g>
</g>
<g>
</g>
<g>
</g>
<g>
</g>
</svg>
