<svg width="232" height="35" fill="none" xmlns="http://www.w3.org/2000/svg"><path d="M10.656 22.912l.768 5.568h.048l.816-5.664L19.2.4h1.92l6.96 22.512.816 5.568h.048l.864-5.664L35.472.4h3.888L30 34.528h-2.208l-6.816-22.512-.864-5.088h-.24l-.864 5.136-6.816 22.464H9.984L.384.4h4.224l6.048 22.512z" fill="#BE2424"/><path d="M54.798 27.016H45.51L42.99 34h-2.952l9.54-25.596h1.368L60.522 34H57.39l-2.592-6.984zm-8.316-2.592h7.416l-2.808-7.668-.9-3.816h-.036l-.9 3.888-2.772 7.596zm31.233-12.96h-7.848V34h-2.988V11.464H59.03V8.8h18.684v2.664zm18.102 21.492c-.72.552-1.632.936-2.736 1.152a18.36 18.36 0 01-3.528.324c-1.512 0-2.928-.252-4.248-.756a9.491 9.491 0 01-3.456-2.376c-.984-1.056-1.764-2.4-2.34-4.032-.576-1.656-.864-3.612-.864-5.868 0-2.352.312-4.344.936-5.976.648-1.656 1.488-3 2.52-4.032 1.056-1.056 2.232-1.824 3.528-2.304a11.32 11.32 0 013.96-.72c1.44 0 2.616.084 3.528.252.912.144 1.692.348 2.34.612l-.72 2.628c-1.152-.552-2.796-.828-4.932-.828-.984 0-1.956.18-2.916.54-.96.36-1.824.948-2.592 1.764-.744.816-1.344 1.884-1.8 3.204-.456 1.32-.684 2.94-.684 4.86 0 1.728.216 3.24.648 4.536.432 1.296 1.02 2.376 1.764 3.24a7.483 7.483 0 002.664 1.944c1.032.432 2.148.648 3.348.648 1.08 0 2.016-.108 2.808-.324.816-.216 1.5-.492 2.052-.828l.72 2.34zm19.522-10.512h-12.096V34h-2.988V8.8h2.988v10.98h12.096V8.8h2.988V34h-2.988V22.444zm14.468 9.468c.816 0 1.572-.12 2.268-.36a5.148 5.148 0 001.8-1.044 5.17 5.17 0 001.62-3.816c0-1.68-.504-2.928-1.512-3.744-.984-.816-2.352-1.224-4.104-1.224h-2.664V20.68l5.184-7.992 1.656-1.584-2.34.36h-7.128V8.8h12.852v1.044l-5.724 8.604-1.26 1.044v.072l1.224-.252c.96.024 1.848.204 2.664.54.816.312 1.524.78 2.124 1.404.6.6 1.068 1.332 1.404 2.196.336.84.504 1.8.504 2.88 0 1.296-.228 2.448-.684 3.456a7.43 7.43 0 01-1.872 2.556c-.768.672-1.68 1.188-2.736 1.548-1.056.36-2.172.54-3.348.54-1.08 0-2.052-.084-2.916-.252-.864-.168-1.62-.384-2.268-.648l.756-2.556c.552.264 1.2.492 1.944.684.768.168 1.62.252 2.556.252zm28.905-5.508a9.626 9.626 0 01-.504 3.132 7.749 7.749 0 01-1.476 2.556c-.648.72-1.452 1.296-2.412 1.728-.96.408-2.052.612-3.276.612-1.2 0-2.28-.192-3.24-.576a6.832 6.832 0 01-2.484-1.692c-.696-.768-1.236-1.704-1.62-2.808-.36-1.104-.54-2.376-.54-3.816 0-2.376.3-4.56.9-6.552.624-2.016 1.476-3.768 2.556-5.256 1.08-1.488 2.352-2.688 3.816-3.6a12.085 12.085 0 014.824-1.764l.612 2.304c-1.344.24-2.568.696-3.672 1.368a12.044 12.044 0 00-2.916 2.484 13.583 13.583 0 00-2.016 3.312 15.09 15.09 0 00-1.08 3.78c.384-.648 1.032-1.236 1.944-1.764.912-.552 2.028-.828 3.348-.828 2.256 0 4.02.648 5.292 1.944 1.296 1.296 1.944 3.108 1.944 5.436zm-2.988.288c0-1.704-.396-2.988-1.188-3.852-.792-.864-2.016-1.296-3.672-1.296-1.176 0-2.196.288-3.06.864-.84.576-1.428 1.224-1.764 1.944a6.083 6.083 0 00-.072.828v.72c0 .744.096 1.476.288 2.196.216.72.54 1.368.972 1.944.432.552.96 1.008 1.584 1.368.648.336 1.404.504 2.268.504.696 0 1.32-.132 1.872-.396a4.434 4.434 0 001.476-1.08c.408-.456.72-1.008.936-1.656.24-.648.36-1.344.36-2.088zm12.561 5.22c1.656 0 3.024-.48 4.104-1.44s1.62-2.352 1.62-4.176c0-1.752-.54-3.06-1.62-3.924-1.056-.864-2.52-1.296-4.392-1.296l-3.024.18V8.8h11.232v2.664h-8.532v7.164l1.548-.072c2.376.024 4.248.684 5.616 1.98 1.368 1.296 2.052 3.156 2.052 5.58 0 1.344-.228 2.544-.684 3.6-.456 1.032-1.08 1.896-1.872 2.592-.768.696-1.68 1.224-2.736 1.584-1.056.36-2.184.54-3.384.54-1.08 0-1.992-.06-2.736-.18-.744-.12-1.44-.3-2.088-.54l.756-2.448c.552.216 1.14.384 1.764.504.648.096 1.44.144 2.376.144zm14.073-9.612h8.712v2.664h-8.712V22.3zm26.905-7.776c0 1.272-.24 2.58-.72 3.924a23.606 23.606 0 01-1.836 3.996 39.147 39.147 0 01-2.52 3.96 95.906 95.906 0 01-2.808 3.636l-1.764 1.548v.144l2.304-.396h7.848V34h-14.328v-1.044c.528-.552 1.164-1.236 1.908-2.052a57.84 57.84 0 002.304-2.7 54.464 54.464 0 002.376-3.168 34.794 34.794 0 002.124-3.42 20.4 20.4 0 001.548-3.42c.384-1.128.576-2.196.576-3.204 0-1.176-.336-2.148-1.008-2.916-.672-.792-1.692-1.188-3.06-1.188-.912 0-1.8.192-2.664.576-.864.36-1.608.78-2.232 1.26l-1.188-2.052c.84-.72 1.836-1.284 2.988-1.692 1.152-.408 2.388-.612 3.708-.612 1.032 0 1.944.156 2.736.468a5.43 5.43 0 012.016 1.26 5.483 5.483 0 011.26 1.98c.288.744.432 1.56.432 2.448zm22.425 11.736h-4.248V34h-2.808v-7.74h-11.088v-1.188l11.952-16.668h1.944V23.74h4.248v2.52zm-7.056-10.368l.36-2.952h-.108l-1.26 2.448-5.076 6.876-1.728 1.764 2.52-.288h5.292v-7.848z" fill="#fff"/></svg>